<svg width="400.5" height="141.6" viewBox="0 0 400.5 141.6" xmlns="http://www.w3.org/2000/svg"><g id="svgGroup" stroke-linecap="round" fill-rule="evenodd" font-size="9pt" stroke="#5bacbd" stroke-width="0.25mm" fill="#83b012" style="stroke:#5bacbd;stroke-width:0.25mm;fill:#83b012"><path d="M 375.9 60.1 A 7.379 7.379 0 0 0 376.814 58.736 A 5.089 5.089 0 0 0 377.4 56.4 A 1.347 1.347 0 0 0 377.397 56.315 Q 377.389 56.176 377.349 56.099 A 0.16 0.16 0 0 0 377.2 56 A 0.341 0.341 0 0 0 377.088 56.021 Q 376.974 56.061 376.835 56.176 A 1.997 1.997 0 0 0 376.7 56.3 A 469.371 469.371 0 0 1 373.614 59.8 Q 368.816 65.185 365.6 68.4 Q 358.9 74.8 357.5 74.8 Q 357.098 74.8 357.019 74.347 A 1.452 1.452 0 0 1 357 74.1 A 4.68 4.68 0 0 1 357.148 73.048 Q 357.64 70.978 359.773 66.798 A 111.448 111.448 0 0 1 361.2 64.1 A 72.684 72.684 0 0 0 361.863 62.886 Q 365.347 56.412 385.5 18.2 L 394.9 18.2 A 9.404 9.404 0 0 0 395.309 18.192 Q 396.356 18.146 396.963 17.857 A 1.316 1.316 0 0 0 397.8 16.6 A 0.396 0.396 0 0 0 397.675 16.297 Q 397.527 16.159 397.206 16.118 A 2.42 2.42 0 0 0 396.9 16.1 L 386.6 16.1 L 390 9.9 A 98.286 98.286 0 0 0 391.268 7.526 Q 393.122 3.931 393.618 2.049 A 4.667 4.667 0 0 0 393.8 0.9 Q 393.8 0 393.1 0 A 1.398 1.398 0 0 0 392.457 0.202 Q 391.502 0.72 389.896 2.575 A 41.139 41.139 0 0 0 388.8 3.9 A 76.262 76.262 0 0 0 388.723 3.999 Q 386.345 7.067 383.326 11.6 A 258.284 258.284 0 0 0 380.4 16.1 Q 376.27 16.175 374 16.194 A 160.805 160.805 0 0 1 372.7 16.2 Q 371.8 16.2 371 16.7 Q 370.509 17.007 370.32 17.313 A 0.73 0.73 0 0 0 370.2 17.7 Q 370.2 18.2 371.2 18.2 L 379.1 18.2 Q 374.7 25.3 369.75 34.1 Q 364.8 42.9 359.5 52.8 A 2537.259 2537.259 0 0 1 358.68 54.33 Q 354.018 63.025 351.9 66.8 L 350.3 69.9 Q 348.7 73.1 347.1 77.3 A 45.444 45.444 0 0 0 346.527 78.887 Q 345.856 80.869 345.623 82.274 A 8.223 8.223 0 0 0 345.5 83.6 A 3.896 3.896 0 0 0 345.518 83.986 Q 345.618 84.989 346.271 85.281 A 1.531 1.531 0 0 0 346.9 85.4 A 2.656 2.656 0 0 0 346.931 85.4 Q 350.11 85.363 358.585 77.742 A 160.887 160.887 0 0 0 362.8 73.8 Q 368.5 68.3 375.9 60.1 L 385.8 48.5 L 386.2 48.3 Q 386.448 48.3 386.491 48.849 A 3.259 3.259 0 0 1 386.5 49.1 L 386.2 54.5 Q 385.975 57.538 385.449 61.081 A 136.74 136.74 0 0 1 384.45 66.9 A 66.309 66.309 0 0 1 384.011 68.999 Q 383.218 72.5 382.23 74.865 A 15.484 15.484 0 0 1 381.1 77.1 L 380.1 78.7 A 9.577 9.577 0 0 1 379.862 79.083 Q 378.88 80.587 377.15 82.05 Q 376.327 82.746 375.496 83.149 A 5.225 5.225 0 0 1 373.2 83.7 Q 371.218 83.7 370.807 81.814 A 5.26 5.26 0 0 1 370.7 80.7 A 9.687 9.687 0 0 1 370.966 78.52 Q 371.232 77.37 371.763 76.103 A 23.336 23.336 0 0 1 372.95 73.7 A 29.416 29.416 0 0 1 374.065 71.871 Q 375.811 69.236 377.7 67.8 Q 377.9 67.6 377.9 67.4 A 0.56 0.56 0 0 0 377.896 67.331 Q 377.864 67.074 377.583 67.017 A 0.917 0.917 0 0 0 377.4 67 Q 373.9 67.7 370.9 69.9 Q 368.2 71.883 366.639 74.062 A 10.697 10.697 0 0 0 364.5 80.4 A 7.983 7.983 0 0 0 364.54 81.21 Q 365.039 86.1 371.8 86.1 A 12.835 12.835 0 0 0 372.616 86.074 Q 373.861 85.994 375.235 85.677 A 23.354 23.354 0 0 0 377.85 84.9 A 15.843 15.843 0 0 0 379.631 84.13 Q 380.96 83.461 382.368 82.48 A 34.217 34.217 0 0 0 385.1 80.35 Q 389 77 390.8 72.1 A 21.828 21.828 0 0 0 391.348 70.452 Q 393 64.767 393 54.8 A 34.877 34.877 0 0 1 393.134 51.687 A 27.061 27.061 0 0 1 393.7 48.05 Q 394.4 45 395.3 43.3 A 17.306 17.306 0 0 1 395.781 42.45 A 14.717 14.717 0 0 1 397.35 40.3 A 47.241 47.241 0 0 1 397.748 39.856 Q 398.582 38.936 398.95 38.65 Q 399.4 38.3 399.7 38.2 A 3.277 3.277 0 0 0 399.819 38.138 Q 400.18 37.938 400.35 37.715 A 0.676 0.676 0 0 0 400.5 37.3 A 1.121 1.121 0 0 0 400.492 37.162 Q 400.41 36.5 399.5 36.5 A 15.862 15.862 0 0 0 397.004 36.69 A 11.997 11.997 0 0 0 392.9 38.1 A 15.557 15.557 0 0 0 390.63 39.703 A 11.301 11.301 0 0 0 388.5 42.1 Q 387.2 44.294 379.43 53.155 A 767.838 767.838 0 0 1 375.5 57.6 L 374.6 58.7 Q 373.9 59.4 373.9 60.7 Q 373.9 61.4 374.4 61.4 A 0.253 0.253 0 0 0 374.401 61.4 Q 374.802 61.398 375.9 60.1 Z M 31.3 86.4 L 41.4 66.8 Q 41.8 66 41.8 65.7 L 40.8 66.4 A 87.694 87.694 0 0 1 37.012 70.513 A 110.793 110.793 0 0 1 33.65 73.8 Q 30.549 76.71 28.357 78.622 A 88.468 88.468 0 0 1 27.1 79.7 L 24.6 81.7 Q 20.5 84.7 18.4 84.7 A 1.908 1.908 0 0 1 17.4 84.451 Q 16.634 83.991 16.455 82.681 A 6.523 6.523 0 0 1 16.4 81.8 A 24.459 24.459 0 0 1 17.145 76.035 Q 18.388 70.925 21.7 64.8 Q 27 55 35.45 47.6 A 40.24 40.24 0 0 1 40.52 43.778 Q 46.216 40.2 51.5 40.2 A 10.724 10.724 0 0 1 52.624 40.256 Q 53.17 40.313 53.639 40.431 A 5.606 5.606 0 0 1 54.05 40.55 Q 54.882 40.828 55.337 41.073 A 2.688 2.688 0 0 1 55.55 41.2 Q 55.98 41.487 56.09 41.5 A 0.084 0.084 0 0 0 56.1 41.5 A 0.36 0.36 0 0 0 56.235 41.471 Q 56.35 41.424 56.491 41.302 A 2.098 2.098 0 0 0 56.6 41.2 Q 57.17 40.44 58.056 39.319 A 175.357 175.357 0 0 1 58.15 39.2 Q 58.887 38.27 60.435 36.828 A 60.258 60.258 0 0 1 61.4 35.95 A 16.019 16.019 0 0 1 62.429 35.102 Q 64.028 33.9 65.1 33.9 Q 65.686 33.9 65.781 34.6 A 2.224 2.224 0 0 1 65.8 34.9 A 4.195 4.195 0 0 1 65.695 35.77 Q 65.506 36.651 64.976 37.873 A 25.188 25.188 0 0 1 64.4 39.1 Q 53.7 58.8 51.4 62.9 Q 50.746 64.126 48.725 67.653 A 968.121 968.121 0 0 1 47.75 69.35 Q 45.125 73.909 43.9 76.05 A 737.019 737.019 0 0 0 43.7 76.4 Q 47.637 73.213 50.715 70.573 A 180.206 180.206 0 0 0 54.1 67.6 Q 57.125 64.438 60.859 60.283 A 529.518 529.518 0 0 0 64.4 56.3 A 1.997 1.997 0 0 1 64.535 56.176 Q 64.674 56.061 64.788 56.021 A 0.341 0.341 0 0 1 64.9 56 A 0.16 0.16 0 0 1 65.049 56.099 Q 65.089 56.176 65.097 56.315 A 1.347 1.347 0 0 1 65.1 56.4 A 5.089 5.089 0 0 1 64.514 58.736 A 7.379 7.379 0 0 1 63.6 60.1 A 1171.221 1171.221 0 0 1 60.469 63.503 Q 58 66.175 56 68.3 Q 51.8 72.7 41 81.1 L 38.4 85.9 A 1983.987 1983.987 0 0 1 30.53 100.245 Q 20.556 118.234 14.876 127.35 A 139.275 139.275 0 0 1 11.8 132.1 A 45.3 45.3 0 0 1 11.219 132.988 Q 10.953 133.385 10.648 133.825 A 94.37 94.37 0 0 1 10 134.75 Q 9.085 136.039 7.203 138.089 A 88.895 88.895 0 0 1 6.4 138.95 A 19.049 19.049 0 0 1 5.354 139.983 Q 3.669 141.512 2.529 141.595 A 1.775 1.775 0 0 1 2.4 141.6 A 1.629 1.629 0 0 1 0.988 140.714 Q 0.153 139.373 0.024 136.003 A 34.049 34.049 0 0 1 0 134.7 Q 0 126.218 5.048 116.492 A 67.631 67.631 0 0 1 7.3 112.5 Q 15 99.8 31.3 86.4 Z M 150.8 69.9 L 152.6 66.8 A 10.404 10.404 0 0 0 152.736 66.555 Q 153 66.063 153 65.9 Q 153 65.7 152.8 65.7 A 0.551 0.551 0 0 0 152.583 65.757 Q 152.255 65.903 151.686 66.428 A 13.474 13.474 0 0 0 151.3 66.8 Q 148.3 70.1 144.45 73.85 Q 141.502 76.721 139.405 78.625 A 89.2 89.2 0 0 1 138.2 79.7 L 135.9 81.7 A 29.691 29.691 0 0 1 134.171 82.942 Q 132.48 84.058 131.215 84.466 A 4.334 4.334 0 0 1 129.9 84.7 Q 127.78 84.7 127.703 81.542 A 9.951 9.951 0 0 1 127.7 81.3 A 9.157 9.157 0 0 1 127.771 80.236 Q 127.96 78.643 128.65 76.1 Q 129.472 73.071 129.957 71.765 A 10.068 10.068 0 0 1 130.1 71.4 Q 132.4 65.8 135.85 60.5 Q 139.3 55.2 144 50.35 Q 148.7 45.5 154.95 42.5 Q 161.2 39.5 167.9 39.5 Q 173.5 39.5 173.5 41.2 A 0.722 0.722 0 0 1 173.103 41.838 Q 172.561 42.166 171.276 42.197 A 11.465 11.465 0 0 1 171 42.2 A 21.996 21.996 0 0 0 159.157 45.744 A 32.42 32.42 0 0 0 153.75 50.05 Q 145.7 57.9 140.7 68.1 A 18.616 18.616 0 0 0 139.977 69.723 Q 139.326 71.413 139.301 72.699 A 5.255 5.255 0 0 0 139.3 72.8 Q 139.3 73.9 140 73.9 Q 141.2 73.9 143.1 72.2 Q 144.3 71.1 146.35 69.3 Q 148.33 67.562 152.688 62.746 A 288.702 288.702 0 0 0 153 62.4 Q 156.935 58.037 159.48 54.187 A 45.449 45.449 0 0 0 160.3 52.9 A 7.743 7.743 0 0 1 160.628 52.315 Q 160.992 51.722 161.55 51 A 7.619 7.619 0 0 1 162.111 50.363 Q 162.741 49.714 163.757 48.879 A 42.52 42.52 0 0 1 164.8 48.05 Q 166.966 46.381 169.131 46.218 A 6.243 6.243 0 0 1 169.6 46.2 A 3.608 3.608 0 0 1 170.041 46.225 Q 170.9 46.331 170.9 46.9 A 0.454 0.454 0 0 1 170.882 47.015 Q 170.833 47.2 170.644 47.526 A 6.085 6.085 0 0 1 170.6 47.6 A 15.276 15.276 0 0 1 170.399 47.985 Q 169.853 49 168.35 51.6 Q 166.5 54.8 164.9 57.65 Q 163.3 60.5 161.5 63.85 Q 160.263 66.153 159.38 68.007 A 54.83 54.83 0 0 0 158.65 69.6 A 33.416 33.416 0 0 0 158.241 70.574 Q 157.708 71.905 157.618 72.562 A 1.777 1.777 0 0 0 157.6 72.8 A 1.052 1.052 0 0 0 157.621 73.023 Q 157.691 73.344 157.99 73.392 A 0.702 0.702 0 0 0 158.1 73.4 Q 159.512 73.4 164.737 68.258 A 117.411 117.411 0 0 0 165.4 67.6 Q 168.425 64.438 172.159 60.283 A 529.518 529.518 0 0 0 175.7 56.3 A 1.997 1.997 0 0 1 175.835 56.176 Q 175.974 56.061 176.088 56.021 A 0.341 0.341 0 0 1 176.2 56 A 0.16 0.16 0 0 1 176.349 56.099 Q 176.389 56.176 176.397 56.315 A 1.347 1.347 0 0 1 176.4 56.4 A 5.089 5.089 0 0 1 175.814 58.736 A 7.379 7.379 0 0 1 174.9 60.1 A 392.969 392.969 0 0 1 169.068 66.454 Q 163.023 72.887 158.374 77.133 A 117.624 117.624 0 0 1 158.3 77.2 A 95.759 95.759 0 0 1 155.37 79.783 Q 149.419 84.8 146.9 84.8 A 1.743 1.743 0 0 1 146.312 84.709 Q 145.543 84.434 145.502 83.326 A 3.444 3.444 0 0 1 145.5 83.2 A 6.932 6.932 0 0 1 145.631 81.949 Q 145.867 80.678 146.53 78.895 A 40.916 40.916 0 0 1 147.25 77.1 A 78.009 78.009 0 0 1 148.957 73.363 Q 149.872 71.499 150.8 69.9 Z M 260 69.9 L 261.8 66.8 A 10.404 10.404 0 0 0 261.936 66.555 Q 262.2 66.063 262.2 65.9 Q 262.2 65.7 262 65.7 A 0.551 0.551 0 0 0 261.783 65.757 Q 261.455 65.903 260.886 66.428 A 13.474 13.474 0 0 0 260.5 66.8 Q 257.5 70.1 253.65 73.85 Q 250.702 76.721 248.605 78.625 A 89.2 89.2 0 0 1 247.4 79.7 L 245.1 81.7 A 29.691 29.691 0 0 1 243.371 82.942 Q 241.68 84.058 240.415 84.466 A 4.334 4.334 0 0 1 239.1 84.7 Q 236.98 84.7 236.903 81.542 A 9.951 9.951 0 0 1 236.9 81.3 A 9.157 9.157 0 0 1 236.971 80.236 Q 237.16 78.643 237.85 76.1 Q 238.672 73.071 239.157 71.765 A 10.068 10.068 0 0 1 239.3 71.4 Q 241.6 65.8 245.05 60.5 Q 248.5 55.2 253.2 50.35 Q 257.9 45.5 264.15 42.5 Q 270.4 39.5 277.1 39.5 Q 282.7 39.5 282.7 41.2 A 0.722 0.722 0 0 1 282.303 41.838 Q 281.761 42.166 280.476 42.197 A 11.465 11.465 0 0 1 280.2 42.2 A 21.996 21.996 0 0 0 268.357 45.744 A 32.42 32.42 0 0 0 262.95 50.05 Q 254.9 57.9 249.9 68.1 A 18.616 18.616 0 0 0 249.177 69.723 Q 248.526 71.413 248.501 72.699 A 5.255 5.255 0 0 0 248.5 72.8 Q 248.5 73.9 249.2 73.9 Q 250.4 73.9 252.3 72.2 Q 253.5 71.1 255.55 69.3 Q 257.53 67.562 261.888 62.746 A 288.702 288.702 0 0 0 262.2 62.4 Q 266.135 58.037 268.68 54.187 A 45.449 45.449 0 0 0 269.5 52.9 A 7.743 7.743 0 0 1 269.828 52.315 Q 270.192 51.722 270.75 51 A 7.619 7.619 0 0 1 271.311 50.363 Q 271.941 49.714 272.957 48.879 A 42.52 42.52 0 0 1 274 48.05 Q 276.166 46.381 278.331 46.218 A 6.243 6.243 0 0 1 278.8 46.2 A 3.608 3.608 0 0 1 279.241 46.225 Q 280.1 46.331 280.1 46.9 A 0.454 0.454 0 0 1 280.082 47.015 Q 280.033 47.2 279.844 47.526 A 6.085 6.085 0 0 1 279.8 47.6 A 15.276 15.276 0 0 1 279.599 47.985 Q 279.053 49 277.55 51.6 Q 275.7 54.8 274.1 57.65 Q 272.5 60.5 270.7 63.85 Q 269.463 66.153 268.58 68.007 A 54.83 54.83 0 0 0 267.85 69.6 A 33.416 33.416 0 0 0 267.441 70.574 Q 266.908 71.905 266.818 72.562 A 1.777 1.777 0 0 0 266.8 72.8 A 1.052 1.052 0 0 0 266.821 73.023 Q 266.891 73.344 267.19 73.392 A 0.702 0.702 0 0 0 267.3 73.4 Q 268.712 73.4 273.937 68.258 A 117.411 117.411 0 0 0 274.6 67.6 Q 277.625 64.438 281.359 60.283 A 529.518 529.518 0 0 0 284.9 56.3 A 1.997 1.997 0 0 1 285.035 56.176 Q 285.174 56.061 285.288 56.021 A 0.341 0.341 0 0 1 285.4 56 A 0.16 0.16 0 0 1 285.549 56.099 Q 285.589 56.176 285.597 56.315 A 1.347 1.347 0 0 1 285.6 56.4 A 5.089 5.089 0 0 1 285.014 58.736 A 7.379 7.379 0 0 1 284.1 60.1 A 392.969 392.969 0 0 1 278.268 66.454 Q 272.223 72.887 267.574 77.133 A 117.624 117.624 0 0 1 267.5 77.2 A 95.759 95.759 0 0 1 264.57 79.783 Q 258.619 84.8 256.1 84.8 A 1.743 1.743 0 0 1 255.512 84.709 Q 254.743 84.434 254.702 83.326 A 3.444 3.444 0 0 1 254.7 83.2 A 6.932 6.932 0 0 1 254.831 81.949 Q 255.067 80.678 255.73 78.895 A 40.916 40.916 0 0 1 256.45 77.1 A 78.009 78.009 0 0 1 258.157 73.363 Q 259.072 71.499 260 69.9 Z M 75.7 70.2 L 77.5 66.8 L 80.6 61.5 A 0.666 0.666 0 0 0 80.592 61.394 Q 80.562 61.209 80.415 61.201 A 0.253 0.253 0 0 0 80.4 61.2 A 0.36 0.36 0 0 0 80.265 61.229 Q 80.15 61.276 80.009 61.398 A 2.098 2.098 0 0 0 79.9 61.5 Q 76.2 65.8 72.2 69.85 A 335.054 335.054 0 0 1 70.319 71.741 Q 68.501 73.552 67.189 74.791 A 69.959 69.959 0 0 1 66.1 75.8 L 63.9 77.7 Q 57.567 83.709 54.398 84.839 A 3.933 3.933 0 0 1 53.1 85.1 A 1.531 1.531 0 0 1 52.471 84.981 Q 51.818 84.689 51.718 83.686 A 3.896 3.896 0 0 1 51.7 83.3 A 7.337 7.337 0 0 1 51.823 82.049 Q 52.046 80.778 52.671 78.995 A 42.4 42.4 0 0 1 53.35 77.2 Q 55 73.1 56.7 69.9 L 58.3 66.8 Q 66.7 51.1 70.7 45.8 Q 72.7 43.2 75.6 41.45 Q 77.853 40.09 79.322 39.787 A 3.868 3.868 0 0 1 80.1 39.7 A 2.115 2.115 0 0 1 80.452 39.727 Q 81.078 39.833 81.099 40.362 A 0.941 0.941 0 0 1 81.1 40.4 A 1.128 1.128 0 0 1 81.065 40.664 Q 80.981 41.008 80.7 41.5 A 4.114 4.114 0 0 1 80.592 41.692 Q 80.096 42.539 77.526 46.665 A 2144.781 2144.781 0 0 1 76.6 48.15 A 261.923 261.923 0 0 0 73.886 52.592 Q 72.843 54.34 71.946 55.917 A 126.985 126.985 0 0 0 70.3 58.9 Q 64.855 68.883 63.902 71.855 A 3.448 3.448 0 0 0 63.7 72.8 Q 63.7 73.5 64.3 73.5 Q 65.085 73.5 66.86 72.13 A 24.443 24.443 0 0 0 67.4 71.7 Q 73.9 66.1 81.7 56.6 A 60.95 60.95 0 0 0 85.26 52.401 Q 87.909 48.994 90.7 44.6 A 12.173 12.173 0 0 1 93.148 41.81 A 9.253 9.253 0 0 1 99.2 39.7 A 1.474 1.474 0 0 1 99.54 39.736 Q 100.1 39.869 100.1 40.5 L 99.3 42.4 Q 98.156 44.442 94.71 50.455 A 5124.45 5124.45 0 0 1 93.05 53.35 A 15112.111 15112.111 0 0 1 91.377 56.264 Q 88.069 62.025 87.5 63 Q 83.4 70.2 83.4 72.5 Q 83.4 73.367 83.957 73.399 A 0.758 0.758 0 0 0 84 73.4 A 1.291 1.291 0 0 0 84.53 73.224 Q 85.752 72.596 88.95 69.724 A 130.52 130.52 0 0 0 90.4 68.4 Q 93.616 65.185 98.414 59.8 A 469.371 469.371 0 0 0 101.5 56.3 A 1.997 1.997 0 0 1 101.635 56.176 Q 101.774 56.061 101.888 56.021 A 0.341 0.341 0 0 1 102 56 A 0.16 0.16 0 0 1 102.149 56.099 Q 102.189 56.176 102.197 56.315 A 1.347 1.347 0 0 1 102.2 56.4 A 5.089 5.089 0 0 1 101.614 58.736 A 7.379 7.379 0 0 1 100.7 60.1 Q 93.3 68.3 87.6 73.8 A 99.646 99.646 0 0 1 82.354 78.425 A 120.427 120.427 0 0 1 78.85 81.2 A 43.689 43.689 0 0 1 76.855 82.642 Q 73.519 84.9 71.8 84.9 A 1.49 1.49 0 0 1 71.077 84.735 Q 70.3 84.312 70.3 82.8 Q 70.3 81.825 71.488 79.003 A 62.692 62.692 0 0 1 72.1 77.6 Q 73.9 73.6 75.7 70.2 Z M 112.3 69.9 L 113.9 66.8 Q 116.018 63.025 120.68 54.33 A 2537.259 2537.259 0 0 0 121.5 52.8 Q 126.8 42.9 131.75 34.1 Q 136.7 25.3 141.1 18.2 L 133.2 18.2 Q 132.2 18.2 132.2 17.7 A 0.73 0.73 0 0 1 132.32 17.313 Q 132.509 17.007 133 16.7 Q 133.8 16.2 134.7 16.2 A 160.805 160.805 0 0 0 136 16.194 Q 138.27 16.175 142.4 16.1 A 258.284 258.284 0 0 1 145.326 11.6 Q 148.345 7.067 150.723 3.999 A 76.262 76.262 0 0 1 150.8 3.9 A 41.139 41.139 0 0 1 151.896 2.575 Q 153.502 0.72 154.457 0.202 A 1.398 1.398 0 0 1 155.1 0 Q 155.8 0 155.8 0.9 A 4.667 4.667 0 0 1 155.618 2.049 Q 155.122 3.931 153.268 7.526 A 98.286 98.286 0 0 1 152 9.9 L 148.6 16.1 L 158.9 16.1 A 2.42 2.42 0 0 1 159.206 16.118 Q 159.527 16.159 159.675 16.297 A 0.396 0.396 0 0 1 159.8 16.6 A 1.316 1.316 0 0 1 158.963 17.857 Q 158.356 18.146 157.309 18.192 A 9.404 9.404 0 0 1 156.9 18.2 L 147.5 18.2 Q 127.347 56.412 123.863 62.886 A 72.684 72.684 0 0 1 123.2 64.1 A 111.448 111.448 0 0 0 121.773 66.798 Q 119.64 70.978 119.148 73.048 A 4.68 4.68 0 0 0 119 74.1 A 1.452 1.452 0 0 0 119.019 74.347 Q 119.098 74.8 119.5 74.8 Q 120.9 74.8 127.6 68.4 Q 130.816 65.185 135.614 59.8 A 469.371 469.371 0 0 0 138.7 56.3 A 1.997 1.997 0 0 1 138.835 56.176 Q 138.974 56.061 139.088 56.021 A 0.341 0.341 0 0 1 139.2 56 A 0.16 0.16 0 0 1 139.349 56.099 Q 139.389 56.176 139.397 56.315 A 1.347 1.347 0 0 1 139.4 56.4 A 5.089 5.089 0 0 1 138.814 58.736 A 7.379 7.379 0 0 1 137.9 60.1 Q 130.5 68.3 124.8 73.8 A 160.887 160.887 0 0 1 120.585 77.742 Q 112.11 85.363 108.931 85.4 A 2.656 2.656 0 0 1 108.9 85.4 A 1.531 1.531 0 0 1 108.271 85.281 Q 107.618 84.989 107.518 83.986 A 3.896 3.896 0 0 1 107.5 83.6 A 8.223 8.223 0 0 1 107.623 82.274 Q 107.856 80.869 108.527 78.887 A 45.444 45.444 0 0 1 109.1 77.3 Q 110.7 73.1 112.3 69.9 Z M 288.3 78.7 L 289.3 77.1 A 15.484 15.484 0 0 0 290.43 74.865 Q 291.418 72.5 292.211 68.999 A 66.309 66.309 0 0 0 292.65 66.9 A 136.74 136.74 0 0 0 293.649 61.081 Q 294.175 57.538 294.4 54.5 L 294.7 49.1 A 3.259 3.259 0 0 0 294.691 48.849 Q 294.648 48.3 294.4 48.3 L 294 48.5 L 284.1 60.1 Q 283.002 61.398 282.601 61.4 A 0.253 0.253 0 0 1 282.6 61.4 Q 282.1 61.4 282.1 60.7 Q 282.1 59.4 282.8 58.7 L 283.7 57.6 A 767.838 767.838 0 0 0 287.63 53.155 Q 295.4 44.294 296.7 42.1 A 11.301 11.301 0 0 1 298.83 39.703 A 15.557 15.557 0 0 1 301.1 38.1 A 11.997 11.997 0 0 1 305.204 36.69 A 15.862 15.862 0 0 1 307.7 36.5 Q 308.61 36.5 308.692 37.162 A 1.121 1.121 0 0 1 308.7 37.3 A 0.676 0.676 0 0 1 308.55 37.715 Q 308.38 37.938 308.019 38.138 A 3.277 3.277 0 0 1 307.9 38.2 Q 307.6 38.3 307.15 38.65 Q 306.782 38.936 305.948 39.856 A 47.241 47.241 0 0 0 305.55 40.3 A 14.717 14.717 0 0 0 303.981 42.45 A 17.306 17.306 0 0 0 303.5 43.3 Q 302.6 45 301.9 48.05 A 27.061 27.061 0 0 0 301.334 51.687 A 34.877 34.877 0 0 0 301.2 54.8 Q 301.2 64.767 299.548 70.452 A 21.828 21.828 0 0 1 299 72.1 Q 297.2 77 293.3 80.35 A 34.217 34.217 0 0 1 290.568 82.48 Q 289.16 83.461 287.831 84.13 A 15.843 15.843 0 0 1 286.05 84.9 A 23.354 23.354 0 0 1 283.435 85.677 Q 282.061 85.994 280.816 86.074 A 12.835 12.835 0 0 1 280 86.1 Q 273.239 86.1 272.74 81.21 A 7.983 7.983 0 0 1 272.7 80.4 A 10.697 10.697 0 0 1 274.839 74.062 Q 276.4 71.883 279.1 69.9 Q 282.1 67.7 285.6 67 A 0.917 0.917 0 0 1 285.783 67.017 Q 286.064 67.074 286.096 67.331 A 0.56 0.56 0 0 1 286.1 67.4 Q 286.1 67.6 285.9 67.8 Q 284.011 69.236 282.265 71.871 A 29.416 29.416 0 0 0 281.15 73.7 A 23.336 23.336 0 0 0 279.963 76.103 Q 279.432 77.37 279.166 78.52 A 9.687 9.687 0 0 0 278.9 80.7 A 5.26 5.26 0 0 0 279.007 81.814 Q 279.418 83.7 281.4 83.7 A 5.225 5.225 0 0 0 283.696 83.149 Q 284.527 82.746 285.35 82.05 Q 287.08 80.587 288.062 79.083 A 9.577 9.577 0 0 0 288.3 78.7 Z M 315.6 78.7 L 316.6 77.1 A 15.484 15.484 0 0 0 317.73 74.865 Q 318.718 72.5 319.511 68.999 A 66.309 66.309 0 0 0 319.95 66.9 A 136.74 136.74 0 0 0 320.949 61.081 Q 321.475 57.538 321.7 54.5 L 322 49.1 A 3.259 3.259 0 0 0 321.991 48.849 Q 321.948 48.3 321.7 48.3 L 321.3 48.5 L 311.4 60.1 Q 310.302 61.398 309.901 61.4 A 0.253 0.253 0 0 1 309.9 61.4 Q 309.4 61.4 309.4 60.7 Q 309.4 59.4 310.1 58.7 L 311 57.6 A 767.838 767.838 0 0 0 314.93 53.155 Q 322.7 44.294 324 42.1 A 11.301 11.301 0 0 1 326.13 39.703 A 15.557 15.557 0 0 1 328.4 38.1 A 11.997 11.997 0 0 1 332.504 36.69 A 15.862 15.862 0 0 1 335 36.5 Q 335.91 36.5 335.992 37.162 A 1.121 1.121 0 0 1 336 37.3 A 0.676 0.676 0 0 1 335.85 37.715 Q 335.68 37.938 335.319 38.138 A 3.277 3.277 0 0 1 335.2 38.2 Q 334.9 38.3 334.45 38.65 Q 334.082 38.936 333.248 39.856 A 47.241 47.241 0 0 0 332.85 40.3 A 14.717 14.717 0 0 0 331.281 42.45 A 17.306 17.306 0 0 0 330.8 43.3 Q 329.9 45 329.2 48.05 A 27.061 27.061 0 0 0 328.634 51.687 A 34.877 34.877 0 0 0 328.5 54.8 Q 328.5 64.767 326.848 70.452 A 21.828 21.828 0 0 1 326.3 72.1 Q 324.5 77 320.6 80.35 A 34.217 34.217 0 0 1 317.868 82.48 Q 316.46 83.461 315.131 84.13 A 15.843 15.843 0 0 1 313.35 84.9 A 23.354 23.354 0 0 1 310.735 85.677 Q 309.361 85.994 308.116 86.074 A 12.835 12.835 0 0 1 307.3 86.1 Q 300.539 86.1 300.04 81.21 A 7.983 7.983 0 0 1 300 80.4 A 10.697 10.697 0 0 1 302.139 74.062 Q 303.7 71.883 306.4 69.9 Q 309.4 67.7 312.9 67 A 0.917 0.917 0 0 1 313.083 67.017 Q 313.364 67.074 313.396 67.331 A 0.56 0.56 0 0 1 313.4 67.4 Q 313.4 67.6 313.2 67.8 Q 311.311 69.236 309.565 71.871 A 29.416 29.416 0 0 0 308.45 73.7 A 23.336 23.336 0 0 0 307.263 76.103 Q 306.732 77.37 306.466 78.52 A 9.687 9.687 0 0 0 306.2 80.7 A 5.26 5.26 0 0 0 306.307 81.814 Q 306.718 83.7 308.7 83.7 A 5.225 5.225 0 0 0 310.996 83.149 Q 311.827 82.746 312.65 82.05 Q 314.38 80.587 315.362 79.083 A 9.577 9.577 0 0 0 315.6 78.7 Z M 171.8 77.1 L 170.6 79.4 A 12.302 12.302 0 0 1 168.747 82.093 A 16.51 16.51 0 0 1 166.9 83.85 Q 164.4 85.9 161.7 85.9 A 4.204 4.204 0 0 1 161.233 85.877 Q 160.3 85.772 160.3 85.2 Q 160.3 84.711 160.864 83.36 A 28.571 28.571 0 0 1 161.15 82.7 Q 161.987 80.83 163.162 78.573 A 106.264 106.264 0 0 1 163.2 78.5 Q 164.4 76.2 165.6 74 A 695.493 695.493 0 0 0 166.175 72.944 Q 167 71.425 167.6 70.3 L 168.5 68.8 L 179 50.5 Q 183.469 42.075 188.26 39.822 A 8.245 8.245 0 0 1 191.8 39 Q 192.7 39 192.7 39.7 A 1.608 1.608 0 0 1 192.549 40.233 Q 191.889 41.822 188.35 47.15 A 239.682 239.682 0 0 0 186.847 49.439 Q 183.869 54.038 183.3 55.5 A 19.684 19.684 0 0 0 183.232 55.708 Q 183.118 56.062 183.103 56.172 A 0.209 0.209 0 0 0 183.1 56.2 Q 183.1 56.4 183.3 56.4 Q 183.5 56.4 184 55.9 A 121.244 121.244 0 0 1 198.837 41.646 A 111.804 111.804 0 0 1 199.9 40.8 Q 200.363 40.337 201.854 39.489 A 36.604 36.604 0 0 1 202.1 39.35 A 9.714 9.714 0 0 1 203.173 38.829 Q 203.733 38.601 204.241 38.494 A 4.183 4.183 0 0 1 205.1 38.4 A 1.567 1.567 0 0 1 206.596 39.359 Q 207 40.179 207 41.7 Q 207 44.281 205.767 47.58 A 33.007 33.007 0 0 1 204.6 50.3 Q 202.2 55.3 198.1 59.1 L 197.7 59.5 Q 197.3 59.8 196.85 60.15 Q 196.4 60.5 195.7 61 A 10.874 10.874 0 0 1 194.672 61.654 A 9.454 9.454 0 0 1 194.3 61.85 A 15.1 15.1 0 0 1 193.194 62.347 A 17.235 17.235 0 0 1 192.8 62.5 A 5.062 5.062 0 0 1 192.072 62.716 A 3.727 3.727 0 0 1 191.3 62.8 A 1.568 1.568 0 0 1 191.011 62.776 Q 190.5 62.679 190.5 62.2 Q 190.5 61.946 190.715 61.549 A 3.862 3.862 0 0 1 190.8 61.4 Q 195.728 53.715 196.54 50.077 A 5.94 5.94 0 0 0 196.7 48.8 Q 196.7 47.9 196 47.9 Q 193 47.9 181.9 61.5 Q 178.6 65.7 175.75 70.2 A 131.175 131.175 0 0 0 174.434 72.319 Q 173.086 74.541 172.284 76.107 A 25.572 25.572 0 0 0 171.8 77.1 Z M 94.5 68.1 L 96.3 64.9 A 745.83 745.83 0 0 1 99.869 58.719 Q 104.875 50.15 107.8 45.8 Q 109.5 43.3 112.15 41.55 Q 114.121 40.249 115.898 39.915 A 6.507 6.507 0 0 1 117.1 39.8 A 1.33 1.33 0 0 1 117.402 39.831 Q 117.814 39.928 117.885 40.322 A 1.002 1.002 0 0 1 117.9 40.5 Q 117.9 41 117.2 42.4 A 165.093 165.093 0 0 1 116.627 43.44 Q 115.119 46.156 111.3 52.9 Q 107.275 60.009 106.037 62.276 A 57.245 57.245 0 0 0 105.7 62.9 Q 101.6 70.1 101.6 72.5 Q 101.6 73.367 102.157 73.399 A 0.758 0.758 0 0 0 102.2 73.4 A 1.291 1.291 0 0 0 102.73 73.224 Q 103.952 72.596 107.15 69.724 A 130.52 130.52 0 0 0 108.6 68.4 Q 111.816 65.185 116.614 59.8 A 469.371 469.371 0 0 0 119.7 56.3 A 1.997 1.997 0 0 1 119.835 56.176 Q 119.974 56.061 120.088 56.021 A 0.341 0.341 0 0 1 120.2 56 A 0.16 0.16 0 0 1 120.349 56.099 Q 120.389 56.176 120.397 56.315 A 1.347 1.347 0 0 1 120.4 56.4 A 5.089 5.089 0 0 1 119.814 58.736 A 7.379 7.379 0 0 1 118.9 60.1 Q 111.5 68.3 105.8 73.8 A 177.579 177.579 0 0 1 101.708 77.538 Q 93.7 84.607 90.947 84.795 A 2.152 2.152 0 0 1 90.8 84.8 A 1.756 1.756 0 0 1 90.007 84.633 Q 89.272 84.266 89.132 83.092 A 5.041 5.041 0 0 1 89.1 82.5 A 8.55 8.55 0 0 1 89.242 81.04 Q 89.514 79.49 90.303 77.336 A 44.439 44.439 0 0 1 90.9 75.8 Q 92.58 71.692 94.261 68.543 A 55.036 55.036 0 0 1 94.5 68.1 Z M 332.5 68.1 L 334.3 64.9 A 745.83 745.83 0 0 1 337.869 58.719 Q 342.875 50.15 345.8 45.8 Q 347.5 43.3 350.15 41.55 Q 352.121 40.249 353.898 39.915 A 6.507 6.507 0 0 1 355.1 39.8 A 1.33 1.33 0 0 1 355.402 39.831 Q 355.814 39.928 355.885 40.322 A 1.002 1.002 0 0 1 355.9 40.5 Q 355.9 41 355.2 42.4 A 165.093 165.093 0 0 1 354.627 43.44 Q 353.119 46.156 349.3 52.9 Q 345.275 60.009 344.037 62.276 A 57.245 57.245 0 0 0 343.7 62.9 Q 339.6 70.1 339.6 72.5 Q 339.6 73.367 340.157 73.399 A 0.758 0.758 0 0 0 340.2 73.4 A 1.291 1.291 0 0 0 340.73 73.224 Q 341.952 72.596 345.15 69.724 A 130.52 130.52 0 0 0 346.6 68.4 Q 349.816 65.185 354.614 59.8 A 469.371 469.371 0 0 0 357.7 56.3 A 1.997 1.997 0 0 1 357.835 56.176 Q 357.974 56.061 358.088 56.021 A 0.341 0.341 0 0 1 358.2 56 A 0.16 0.16 0 0 1 358.349 56.099 Q 358.389 56.176 358.397 56.315 A 1.347 1.347 0 0 1 358.4 56.4 A 5.089 5.089 0 0 1 357.814 58.736 A 7.379 7.379 0 0 1 356.9 60.1 Q 349.5 68.3 343.8 73.8 A 177.579 177.579 0 0 1 339.708 77.538 Q 331.7 84.607 328.947 84.795 A 2.152 2.152 0 0 1 328.8 84.8 A 1.756 1.756 0 0 1 328.007 84.633 Q 327.272 84.266 327.132 83.092 A 5.041 5.041 0 0 1 327.1 82.5 A 8.55 8.55 0 0 1 327.242 81.04 Q 327.514 79.49 328.303 77.336 A 44.439 44.439 0 0 1 328.9 75.8 Q 330.58 71.692 332.261 68.543 A 55.036 55.036 0 0 1 332.5 68.1 Z M 6.8 128.9 L 7.5 127.9 Q 15.088 116.157 26.266 95.683 A 1123.336 1123.336 0 0 0 28.7 91.2 Q 16.1 102.1 9.8 112.3 A 32.707 32.707 0 0 0 9.215 113.214 Q 8.622 114.171 7.9 115.45 Q 7.071 116.92 5.787 119.982 A 141.675 141.675 0 0 0 4.9 122.15 A 35.998 35.998 0 0 0 3.898 124.968 Q 3 127.9 3 130.1 A 7.356 7.356 0 0 0 3.018 130.634 Q 3.103 131.8 3.6 131.8 A 0.819 0.819 0 0 0 3.896 131.735 Q 4.317 131.569 4.96 130.981 A 10.199 10.199 0 0 0 5.1 130.85 A 13.872 13.872 0 0 0 6.233 129.643 A 11.56 11.56 0 0 0 6.8 128.9 Z M 54.796 43.206 A 1.484 1.484 0 0 0 54.8 43.1 A 0.528 0.528 0 0 0 54.496 42.623 Q 54.107 42.402 53.218 42.4 A 7.205 7.205 0 0 0 53.2 42.4 A 7.086 7.086 0 0 0 50.622 42.947 Q 48.318 43.852 45.458 46.258 A 44.618 44.618 0 0 0 42.9 48.6 Q 36.6 54.8 32 62.2 A 64.546 64.546 0 0 0 30.096 65.455 Q 27.462 70.307 27.401 72.977 A 5.485 5.485 0 0 0 27.4 73.1 A 2.378 2.378 0 0 0 27.453 73.626 Q 27.619 74.355 28.306 74.476 A 1.697 1.697 0 0 0 28.6 74.5 A 2.33 2.33 0 0 0 29.346 74.363 Q 30.032 74.131 30.887 73.501 A 11.988 11.988 0 0 0 31.4 73.1 Q 32.9 71.8 35.45 69.45 A 29.254 29.254 0 0 0 36.846 68.055 Q 38.842 65.942 42.092 61.991 A 317.993 317.993 0 0 0 44.2 59.4 Q 50.4 51.7 54.7 43.5 Q 54.781 43.419 54.796 43.206 Z M 237 63.2 L 210.2 63.2 A 4.32 4.32 0 0 1 209.622 63.165 Q 208.987 63.079 208.712 62.781 A 0.821 0.821 0 0 1 208.5 62.2 Q 208.5 61.4 209.75 60.05 Q 211 58.7 212.1 58.7 L 238.8 58.7 A 4.809 4.809 0 0 1 239.372 58.731 Q 240.5 58.867 240.5 59.6 A 2.107 2.107 0 0 1 240.325 60.412 Q 240.068 61.028 239.437 61.708 A 7.729 7.729 0 0 1 239.35 61.8 Q 238.483 62.705 237.588 63.041 A 3.134 3.134 0 0 1 237 63.2 Z M 116.6 31.1 A 6.458 6.458 0 0 0 116.613 31.517 Q 116.78 34.1 119.1 34.1 A 5.051 5.051 0 0 0 120.654 33.855 Q 121.635 33.54 122.571 32.819 A 9.955 9.955 0 0 0 124 31.45 Q 124.898 30.415 125.446 29.357 A 7.231 7.231 0 0 0 126.3 26 A 7.358 7.358 0 0 0 126.297 25.794 Q 126.229 23.372 124.541 22.787 A 3.782 3.782 0 0 0 123.3 22.6 Q 121.503 22.6 119.913 24.073 A 9.759 9.759 0 0 0 118.7 25.45 Q 116.6 28.3 116.6 31.1 Z M 354.6 31.1 A 6.458 6.458 0 0 0 354.613 31.517 Q 354.78 34.1 357.1 34.1 A 5.051 5.051 0 0 0 358.654 33.855 Q 359.635 33.54 360.571 32.819 A 9.955 9.955 0 0 0 362 31.45 Q 362.898 30.415 363.446 29.357 A 7.231 7.231 0 0 0 364.3 26 A 7.358 7.358 0 0 0 364.297 25.794 Q 364.229 23.372 362.541 22.787 A 3.782 3.782 0 0 0 361.3 22.6 Q 359.503 22.6 357.913 24.073 A 9.759 9.759 0 0 0 356.7 25.45 Q 354.6 28.3 354.6 31.1 Z" vector-effect="non-scaling-stroke"/></g></svg>